<?xml version="1.0" encoding="UTF-8" standalone="no"?><!DOCTYPE svg PUBLIC "-//W3C//DTD SVG 1.1//EN" "http://www.w3.org/Graphics/SVG/1.1/DTD/svg11.dtd"><svg width="100%" height="100%" viewBox="0 0 16455 9221" version="1.1" xmlns="http://www.w3.org/2000/svg" xmlns:xlink="http://www.w3.org/1999/xlink" xml:space="preserve" xmlns:serif="http://www.serif.com/" style="fill-rule:evenodd;clip-rule:evenodd;stroke-linecap:round;stroke-linejoin:round;stroke-miterlimit:1.5;"><g id="Background"><g><path id="board" d="M16445.046,7360.404c-12.558,-609.492 -1141.004,-1169.025 -2477.858,-1558.508c-848.138,-247.117 -2597.154,-388.462 -3427.388,-461.892c-1834.438,-162.15 -6208.8,74.283 -6932.246,123.158c-611.421,41.317 -3207.042,244.9 -3342.479,297.188c-356.296,137.483 -314.408,2649.954 -53.767,2840.292c77.179,56.379 2477.575,287.638 3225.458,360.5c1275.246,124.183 6026.137,270.587 7028.296,247.513c472.008,-10.854 2645.408,-144.471 3517.925,-351.008c1114.917,-263.937 2476.325,-809.15 2462.117,-1497.183l-0.058,-0.058Z" style="fill:#9da6e8;stroke:#fff;stroke-width:13.63px;"/><g id="lines"><path d="M13.867,7305.9l16418.788,-50.129c21.596,190.279 -10.571,301.221 -63.142,394.429l-16344.45,-37.396l-11.138,-306.904l-0.058,0Z" style="fill:#fde5e5;"/><path d="M69.225,6261.8l15149.567,0c416.025,164.421 901.733,496.562 1043.308,683.829l-16247.663,133.275c-0.396,-95.596 3.354,-227.733 14.892,-392.042c5.742,-82.125 21.937,-316.679 39.896,-425.062Z" style="fill:#fde5e5;"/></g><g id="flower-2" serif:id="flower 2"><path d="M13449.938,6698.229c-216.483,-423.925 96.904,-610.796 330.775,-865.871c148.792,229.154 83.433,763.396 -330.775,865.871Z" style="fill:#65b0ab;"/><path d="M13555.933,6796.608c392.042,-332.083 476.442,-283.829 1044.271,-178.346c-316.337,297.242 -606.079,465.017 -1044.271,178.346Z" style="fill:#65b0ab;"/><path d="M13452.1,6878.225c398.862,241.092 468.654,383.629 402.046,906.792c-364.821,-204.604 -600.679,-387.896 -402.046,-906.792Z" style="fill:#65b0ab;"/><path d="M12424.821,7374.388c279.85,-516.054 460.754,-427.508 935.946,-523.217c-108.896,403.808 -384.142,588.517 -935.946,523.217Z" style="fill:#65b0ab;"/><path d="M12505.867,6161.888c769.479,27.733 796.646,391.192 800.113,577.15c-419.663,-37.679 -617.563,-78.6 -800.113,-577.15Z" style="fill:#65b0ab;"/></g><g id="flower"><path d="M11776.112,8144.833c113.896,323.046 -127.421,426.371 -318.612,585.962c-84.229,-177.608 13.354,-552.429 318.612,-585.962Z" style="fill:#656fb0;"/><path d="M11709.9,8064.525c-311.279,199.433 -366.867,156.921 -761.808,27.508c253.992,-181.754 476.671,-273.771 761.808,-27.508Z" style="fill:#656fb0;"/><path d="M11791.742,8016.217c-261.437,-210.004 -297.642,-318.329 -200.171,-685.137c240.638,180.733 391.363,333.958 200.171,685.137Z" style="fill:#656fb0;"/><path d="M12571.738,7760.463c-248.879,341.346 -369.421,260.925 -717.475,283.775c116.225,-277.633 330.15,-383.062 717.475,-283.775Z" style="fill:#656fb0;"/><path d="M12397.996,8617.921c-548.792,-96.504 -535.663,-354.021 -521.512,-484.796c297.3,68.429 435.35,116.967 521.512,484.796Z" style="fill:#656fb0;"/></g></g><g id="Background1" serif:id="Background"><path d="M6217.815,7829.936c-113.579,-112.648 -170.247,-130.648 -340.669,-193.331c26.551,-45.415 -2.115,2.5 0,0c2.668,-4.603 43.412,-83.357 50.807,-95.291c2.827,-4.56 46.686,-65.81 57.814,-76.988c15.838,-18.394 97.132,-94.816 98.034,-95.675c2.102,-1.995 203.93,-195.938 206.716,-200.223c4.581,-2.738 72.882,-66.936 77.933,-72.131c4.638,-4.898 151.046,-108.004 154.841,-110.583c18.317,-25.782 -16.866,-48.734 -56.921,-87.145c0,0 -114.27,-123.639 -117.349,-126.968c-0.045,-0.044 -0.081,-0.096 -0.117,-0.14c-20.923,-26.509 -86.305,-110.556 -102.928,-126.183c-12.73,-23.198 -64.18,-80.786 -69.715,-87.142c-12.045,-0.271 -249.735,-366.405 -287.04,-417.569c0,0 -23.701,-34.027 -32.5,-51.949c-11.374,-14.63 -21.319,-32.982 -21.319,-32.982c-3.748,-38.202 -157.476,-344.641 -165.179,-356.841c-2.298,-4.824 -9.064,-32.102 -11.371,-36.918c-1.922,-2.678 -18.075,-46.677 -22.49,-56.744c-0.272,-1.492 -12.533,-43.922 -21.786,-71.36c-6.539,-22.653 -51.662,-112.78 -64.88,-250.034c-19.977,-207.4 -12.341,-238.405 79.356,-503.304c14.332,-20.228 96.841,-195.213 98.475,-200.468c7.913,-10.613 49.513,-90.455 102.996,-166.229c54.826,-99.324 215.25,-247.535 319.328,-310.493c146.431,-100.894 152.491,-88.429 277.973,-166.486c0.742,-0.158 103.448,-58.942 153.824,-56.051c45.52,48.245 188.686,160.802 289.942,-73.743c61.825,-21.491 209.754,-38.37 219.2,-40.408c14.629,2.809 104.09,-3.259 135.855,-9.886l145.588,-9.113c16.816,2.954 131.657,1.404 147.607,-1.383c59.409,-0.557 313.742,3.143 328.305,3.856c43.39,0.771 200.782,13.45 200.342,13.703c146.932,15.134 173.453,27.188 186.322,33.388c53.383,220.435 202.144,221.835 290.489,86.835c0,0 84.886,21.488 96.836,29.52c16.22,10.986 16.371,9.436 136.26,63.584c11.41,5.463 50.583,26.629 65.053,34.466c20.821,11.044 160.608,93.481 165.412,98.518c72.926,59.44 166.812,118.748 223.531,176.74c3.793,3.88 75.012,91.9 79.699,99.168c7.681,5.98 5.612,6.913 79.456,92.136c4.058,4.682 53.045,94.654 102.237,170.519c2.245,8.161 49.668,116.703 50.393,120.881c146.043,401.434 73.959,637.67 75.453,649.236c-13.509,47.064 -92.399,257.996 -92.963,258.993c-132.229,234.103 -170.301,318.73 -183.182,347.383c-13.024,10.932 -23.461,38.852 -27.742,41.578c-18.821,30.831 -97.458,151.89 -100.369,156.911c-138.32,238.786 -225.908,346.658 -251.555,403.088c-3.03,3.81 7.678,21.544 9.991,16.838c69.194,52.118 71.559,56.482 140.75,109.963c7.476,5.778 35.736,25.857 43.586,27.605c20.372,12.951 93.095,68.199 94.213,69.382c13.809,9.817 47.844,32.834 63.991,36.132c10.192,7.449 166.049,105.209 237.701,138.65c14.742,9.303 40.728,26.786 57.859,27.755c116.645,52.811 150.599,65.76 163.952,70.848c13.666,9.677 123.44,39.388 135.011,38.292c24.379,5.299 32.323,10.143 54.502,19.836c5.92,92.975 -60.047,110.97 -97.618,430.571c0,0 -31.191,-6.023 -37.803,-7.068c10.623,12.248 -55.498,-24.498 -101.431,-40.726c-0.912,-0.875 -111.53,-55.192 -114.062,-57.077c-71.129,-50.125 -255.439,-150.956 -314.29,-200.644c-125.277,-87.581 -447.518,-348.176 -485.231,-370.145c-41.274,-24.038 -46.024,-46.515 -72.168,-8.607c-16.671,24.163 -7.655,-0.945 -37.562,50.867c-44.848,42.14 -39.171,46.822 -103.64,99.389c-66.557,54.27 -92.852,59.467 -154.344,105.676c-48.149,17.833 -45.445,21.68 -91.58,43.297c-7.597,4.522 -144.495,57.208 -149.157,59.85c-14.534,7.887 -131.304,40.346 -136.008,43.148c-10.397,2.446 -139.586,33.638 -149.683,37.647c-290.148,40.017 -486.019,22.418 -493.306,20.238c-13.224,-0.488 -70.582,-2.599 -164.182,-20.579c-10.092,-3.84 -135.197,-39.184 -137.125,-39.88c-95.987,-34.581 -92.402,-41.158 -187.006,-77.17c-92.979,-52.177 -93.729,-50.364 -100.24,-56.895c-64.917,-65.179 -447.917,386.689 -450.175,389.066c-14.729,15.401 -91.716,130.019 -91.716,130.019c-9.257,17.431 -59.231,116.987 -59.231,116.987l-0,-0.009Z" style="fill:#ee874c;"/><path d="M4778.205,4706.876c-14.309,-19.43 -14.654,-18.603 -181.323,-241.008c-11.083,-8.846 -66.687,-91.112 -101.55,-149.035c-6.501,-7.266 -36.179,-54.352 -37.18,-56.155c-58.716,-99.602 -61.286,-97.46 -66.156,-106.212c-59.682,-107.263 -105.169,-197.563 -107.185,-200.011c-2.939,-9.357 -41.691,-102.056 -43.902,-106.899c-9.84,-21.025 -26.811,-72.147 -28.922,-78.504c-6.322,-22.151 -42.13,-139.399 -46.111,-149.311c3.366,25.447 -26.293,-114.393 -37.95,-178.383c-1.985,-9.455 -0.82,-42.427 -7.726,-57.068c-1.216,-121.746 -0.664,-159.878 -0.829,-219.857l8.261,-65.59c64.419,21.351 333.42,27.364 420.899,43.118c542.35,97.675 660.564,185.083 820.437,256.797c1.463,-23.967 -0.865,37.012 -0.865,37.012c-6.105,47.694 -12.86,81.645 -13.508,89.862c-0.012,0.496 -0.069,0.992 -0.17,1.488c-11.627,61.856 -25.265,304.358 -24.417,323.435c0.991,16.766 5.382,166.792 9.196,179.431c0.614,2.029 13.212,160.055 29.335,205.382c0.972,4.051 8.821,36.786 11.27,50.872c-0.451,4.252 3.126,27.024 2.675,31.267c18.142,27.149 -250.34,297.111 -604.279,389.368Z" style="fill:#ee874c;"/><path d="M10427.962,4553.041c-117.479,47.455 -636.04,-171.115 -634.634,-294.269c4.683,-38.256 13.439,-34.428 21.17,-71.486c1.306,-12.021 14.6,-42.59 14.6,-42.59c4.497,-9.878 12.941,-30.45 10.826,-41.355c9.915,-29.675 5.583,-30.125 17.229,-58.429c34.217,-96.921 15.719,-298.391 14.794,-302.221c-3.136,-7.01 -42.675,-175.06 -46.911,-184.005c-25.407,-97.494 -19.634,-64.481 -37.478,-130.379c122.96,-73.801 192.707,-225.584 873.273,-289.476c79.766,-7.488 237.915,-26.927 311.728,-5.737c2.043,176.542 8.873,176.435 -17.725,350.492c-3.738,10.48 -19.403,66.212 -17.29,77.772c-12.077,32.742 -11.384,31.274 -17.207,65.499c-8.688,20.177 -46.011,152.293 -44.811,163.65c-1.446,2.971 -58.099,114.463 -60.902,123.791c-1.099,2.365 11.291,-23.319 10.02,-20.598c-0.216,0.462 -216.673,442.766 -396.672,659.359l-0.009,-0.018Z" style="fill:#ee874c;"/><path d="M9771.127,3386.452c-12.273,-17.673 -17.193,-24.345 -19.409,-28.958c-51.388,-107.005 -58.493,-132.979 -97.296,-195.311c-0.269,-2.023 -26.805,-64.051 -29.544,-71.171c-0.242,-1.979 -21.998,-80.471 -30.07,-92.472c-11.052,-16.783 -14.974,-85.659 -15.451,-100.616c-1.483,-46.508 20.31,-33.112 80.814,-59.862c0,0 113.32,23.692 121.855,21.673c19.79,4.719 87.975,31.693 99.278,30.397c106.629,35.256 106.742,34.22 115.926,37.467c11.929,5.997 87.419,39.37 132.288,60.291c19.351,15.97 72.144,39.894 104.011,67.933c0,0 20.995,32.516 43.223,58.604c0.593,0.834 14.326,34.374 11.144,-0.427c-6.687,-13.989 -10.633,-28.263 -15.756,-39.101c-36.545,-77.194 -63.899,-132.878 -66.095,-137.252c-2.097,-4.172 -5.343,-8.234 -9.898,-17.264c-39.352,-72.386 -123.974,-187.809 -160.494,-204.942c-3.044,-4.241 -45.052,-55.824 -56.869,-63.875c-2.544,-4.645 -19.791,-24.928 -22.292,-27.176c-7.873,-14.861 -30.817,-26.679 -35.129,-29.535c-22.133,-22.178 -20.261,-22.481 -43.628,-41.682c-9.998,-8.327 -56.016,-44.215 -58.937,-48.493c-4.242,-2.884 -8.493,-5.768 -12.735,-8.652c-5.221,-5.041 -80.533,-86.037 -88.645,-90.835c-4.926,-14.025 -18.099,-27.238 -19.808,-29.839c7.774,-32.165 30.806,-49.645 34.835,-52.705c0,0 25.916,-10.892 44.474,-17.211c11.205,1.173 62.247,-17.54 63.011,-18.053c62.898,-7.849 41.416,-11.091 185.711,-29.489c11.796,-3.213 95.42,-16.493 128.458,-10.719c86.491,15.119 80.038,9.825 136.305,20.087c17.314,3.153 48.168,11.657 63.232,10.348c13.3,3.461 28.523,15.599 37.849,15.615c4.535,2.952 28.409,12.37 35.807,14.124c2.214,0.198 44.922,20.982 57.171,22.082c2.543,2.035 146.504,84.26 158.057,91.597c82.469,46.474 175.28,151.432 181.204,155.271c8.384,19.74 41.685,64.655 50.166,86.013c4.094,28.235 92.058,169.308 97.3,378.112c-15.804,-3.496 -695.488,121.217 -755.261,136.732c-162.739,42.227 -342.165,133.861 -444.802,209.296Z" style="fill:#ee874c;fill-opacity:0.99;"/><path d="M10482.873,6920.325c-169.309,19.229 -183.395,17.52 -350.876,2.036c-24.402,-6.608 -145.272,-13.789 -206.021,-27.021c-114.076,-24.861 -251.614,-57.012 -295.271,-67.053c-1.078,0.94 -106.553,-38.867 -151.328,-55.161c-0.999,-0.759 -43.205,-20.089 -57.203,-28.435c-4.543,-2.898 -190.251,-95.371 -194.179,-97.789c-107.93,-60.389 -189.434,-103.493 -201.323,-104.828c31.901,-43.976 208.26,-334.598 241.782,-357.515c91.983,46.71 91.271,45.488 179.324,98.76c9.493,5.748 33.39,12.264 36.371,13.082c15.699,7.771 15.181,8.192 20.448,9.198c15.011,11.308 77.273,39.61 86.066,41.039c60.716,40.201 262.364,94.653 332.667,99.307c1.531,0.86 244.721,20.1 254.413,22.139c47.468,-0.174 106.37,1.539 153.839,1.373c-4.574,252.865 128.341,420.184 151.299,450.883l-0.009,-0.018Z" style="fill:#ee874c;fill-opacity:0.99;"/><path d="M4974.652,6977.202c-20.573,-0.11 -124.61,7.281 -270.218,-3.063c21.082,-32.12 139.658,-218.476 130.461,-454.136c47.47,-0.847 115.486,-3.247 162.956,-4.094c30.035,1.231 135.648,-15.272 135.648,-15.272c23.514,2.079 274.888,-63.214 285.153,-67.242c33.149,-13.03 253.07,-95.722 269.016,-103.915c63.582,-32.649 173.249,-94.25 240.759,-131.187c49.145,78.087 164.09,258.86 240.742,355.228c-31.443,19.506 -174.019,95.116 -217.905,121.089c-40.608,21.408 -269.724,136.59 -292.147,144.728c-66.814,31.613 -61.948,24.058 -128.183,51.789c-35.835,15.005 -82.033,25.739 -92.525,30.132c-2.713,1.197 -83.234,21.752 -85.557,22.104c-4.541,0.685 -71.195,13.051 -78.437,15.216l-153.106,24.446c-43.755,5.745 -101.911,14.402 -146.649,14.167l-0.009,0.009Z" style="fill:#ee874c;"/><path d="M4890.002,3148.359c-3.836,2.916 -23.804,1.42 -245.897,-39.35c-38.857,-7.128 -469.043,-21.463 -513.692,-4.055c0.259,-18.23 1.819,-17.096 -1.912,-34.434c0.876,-5.035 27.55,-140.914 28.028,-143.396c11.056,-21.282 27.222,-68.17 29.275,-73.165c66.72,-113.341 151.168,-273.871 328.228,-369.276c2.46,-10.891 81.369,-50.887 104.598,-57.318c15.263,-7.514 69.715,-36.784 199.996,-65.086c70.923,-15.411 283.085,-0.117 307.575,2.244c0,0 44.105,19.814 50.639,21.036c11.169,11.11 24.661,23.576 25.718,24.751c3.361,4.026 19.07,33.66 19.07,33.66c-4.553,7.87 -9.107,15.731 -13.651,23.601c-2.469,2.433 -97.457,84.184 -133.316,130.379c-5.779,7.449 -88.074,129.75 -107.717,170.73c-20.829,43.47 -53.085,179.478 -54.38,185.827c-3.672,10.081 -12.911,68.532 -24.15,136.144c-7.003,28.875 -20.36,46.836 1.592,57.708Z" style="fill:#ee874c;fill-opacity:0.99;"/><path d="M4646.11,6962.678c-138.155,-62.865 -140.915,-73.684 -152.137,-79.83c-7.498,-4.566 -96.524,-65.349 -123.883,-98.904c-3.397,-4.167 -33.788,-34.027 -52.592,-53.488c-3.9,-4.038 -56.073,-63.901 -63.574,-81.253c-4.565,-2.465 -28.505,-34.79 -30.638,-37.36c-6.567,-11.07 -66.801,-88.527 -68.809,-91.036c-0.765,-5.442 -39.001,-58.454 -49.857,-76.832c-34.271,-57.991 -51.337,-92.92 -54.029,-99.899c-4.748,-9.692 -18.336,-36.225 -20.8,-43.366c-3.925,-18.124 -61.739,-147.013 -65.816,-156.889c-5.37,-15.79 -16.224,-70.834 -16.224,-70.834c1.825,-9.832 -16.86,-159.486 11.478,-294.418c2.364,-11.616 19.318,-51.647 21.807,-56.381c20.47,-39.741 30.034,-38.196 65.136,-67.323c13.167,2.577 12.189,0.482 22.661,6.83c8.109,6.294 6.677,7.211 14.138,8.239c4.988,6.504 23.367,49.267 23.367,49.267c2.054,2.597 4.099,5.204 6.152,7.801c2.836,12.986 6.486,10.107 74.734,148.407c0.467,12.382 106.444,192.701 129.651,227.662c57.039,101.646 203.525,252.116 251.355,276.952c8.002,7.038 141.132,90.015 157.537,97.637c4.656,2.676 63.422,31.731 63.422,31.731c23.048,203.307 -122.403,421.198 -143.069,453.296l-0.009,-0.009Z" style="fill:#ee874c;fill-opacity:0.99;"/><path d="M10691.281,6828.225c-36.595,23.463 -59.468,44.4 -158.739,77.462c-10.395,-14.923 -17.331,-29.891 -26.234,-43.441c-105.709,-160.829 -110.932,-232.214 -133.11,-400.872c0,0 133.368,-57.737 172.03,-89.025c0,0 62.086,-48.657 64.335,-50.99c74.026,-60.826 102.349,-90.085 131.279,-123.934c64.161,-75.055 190.068,-299.447 206.317,-329.197c12.329,-17.225 27.109,-45.35 27.495,-57.414c64.678,-139.961 69.01,-136.902 71.217,-150.002c13.012,-12.065 18.499,-43.755 28.696,-57.586c4.633,-2.845 23.39,-12.997 36.402,-15.825c36.924,26.915 37.881,25.321 59.339,64.796c2.563,4.707 27.574,45.48 30.164,56.964c36.497,152.226 9.452,273.12 13.731,335.525c-5.903,55.947 -61.533,206.439 -163.548,354.104c8.175,-6.749 -133.434,195.458 -197.593,273.159c3.236,-9.395 -28.395,34.162 -99.861,108.675c-9.452,4.842 -59.043,43.546 -61.929,47.585l0.009,0.018Z" style="fill:#ee874c;fill-opacity:0.99;"/><path d="M5402.946,7635.371c-15.117,7.097 -49.387,19.519 -49.387,19.519c3.53,-322.329 -87.237,-347.702 -105.722,-434.041c-2.532,-11.839 3.633,2.979 0,0c7.663,-3.319 15.334,-6.639 22.997,-9.949c11.249,1.155 9.756,-0.298 20.257,-4.638c0,0 100.555,-22.962 113.988,-28.66c4.723,-2.651 9.456,-5.294 14.179,-7.945c14.101,-5.272 195.986,-87.031 219.742,-102.952c46.94,-24.191 44.084,-26.497 91.285,-51.939c12.302,-5.572 35.921,-23.65 43.171,-28.31c64.926,-32.761 105.877,-64.418 114.399,-71.003c0.353,-0.066 46.818,-24.836 70.516,-44.72c45.231,-30.155 40.717,-34.504 85.414,-64.114c11.919,-2.462 23.857,-19.019 28.484,-21.545c14.178,-7.184 18.145,-10.296 159.762,-126.349c13.981,22.663 116.3,170.026 213.477,247.667c-2.167,2.607 -337.826,279.065 -359.624,295.302c-35.989,25.58 -138.314,119.646 -354.784,261.017c-13.476,8.38 -25.771,20.402 -27.821,22.397c0,0 -109.194,61.1 -114.16,65.09c-15.435,6.348 -64.133,34.133 -71.155,37.003c-4.79,2.236 -67.122,32.642 -115.011,48.19l-0.009,-0.018Z" style="fill:#ee874c;"/><path d="M5601.623,6113.743c-76.695,2.571 -296.09,43.742 -579.264,-15.67c-73.833,-15.491 -137.778,-26.327 -157.517,-29.578l-6.266,-1.022c0,0 29.689,1.217 -15.199,-6.529c-17.392,-3.001 -41.972,-15.563 -56.251,-13.739c-51.171,-21.986 -106.709,-41.936 -116.097,-45.305c-18.102,-9.108 -17.383,-8.063 -36.549,-13.169c-19.639,-14.737 -19.943,-10.779 -43.501,-20.466c-6.801,-3.078 -13.611,-6.147 -20.413,-9.225c-14.707,-10.17 -14.623,-8.136 -29.483,-20.198l-11.22,-12.578c38.918,-38.909 159.152,-133.802 245.844,-348.267c28.264,13.717 42.21,22.231 45.255,22.341c92.81,53.762 117.4,56.422 125.767,59.484c7.252,2.162 14.503,4.315 21.764,6.477c98.354,39.246 204.439,45.566 222.457,45.835c5.096,1.645 96.134,9.982 105.874,8.127c1.36,-0.262 13.182,-0.139 14.992,-0.477c96.976,-0.751 95.888,-0.677 191.937,-2.091c55.248,-0.814 49.699,-2.534 128.868,-14.687l40.12,-3.963c3.062,13.434 6.308,102.854 155.749,356.215c-51.091,13.998 -198.662,49.818 -205.46,51.226c-7.186,2.35 -14.211,4.928 -21.397,7.278l-0.009,-0.018Z" style="fill:#ee874c;fill-opacity:0.99;"/><path d="M9743.806,6089.603c-7.235,-2.224 -230.838,-23.485 -264.569,-30.375c-25.272,-5.166 -83.611,-22.281 -121.116,-29.653c4.424,-28.449 79.309,-147.858 189.285,-353.474c7.675,-0.47 6.208,2.182 14.139,1.691c1.211,-0.075 66.29,8.342 93.53,3.002c97.349,-0.666 95.599,-0.435 191.894,-1.975c26.439,2.614 25.682,0.463 86.225,-4.955c43.726,-4.285 172.111,-30.292 257.362,-57.977c11.23,0.978 212.851,-101.18 214.508,-102.578c14.5,30.78 238.404,344.998 238.404,344.998c-19.908,16.739 -128.595,81.496 -128.595,81.496c-59.337,25.809 -120.285,48.202 -136.355,55.512c22.97,10.87 -359.47,100.589 -634.703,94.287l-0.009,0Z" style="fill:#ee874c;fill-opacity:0.99;"/><path d="M9646.642,5350.133c-16.934,-109.564 -20.072,-200.507 -29.666,-291.974c-10.018,-95.595 -27.076,-191.779 -74.278,-310.438l-10.984,21.467c4.182,-9.485 51.195,-88.748 94.106,-180.213c7.314,-15.376 41.52,-73.25 43.894,-77.991c42.317,-74.78 82.674,-160.98 88.957,-173.452c54.258,31.156 534.651,208.888 617.565,260.702c4.382,2.741 1.449,14.894 6.274,16.763c-52.488,61.792 -106.904,143.841 -114.795,155.754c-67.477,86.938 -196.471,229.464 -229.749,262.925c-4.341,2.789 -111.51,114.098 -183.959,165.891c-96.371,68.884 -157.157,126.702 -207.356,150.565l-0.009,0Z" style="fill:#ee874c;"/><path d="M4476.813,5881.372c-2.339,-2.807 -28.342,-29.439 -37.042,-39.708c-4.887,-12.831 -9.386,-14.881 -32.006,-46.247c-8.172,-11.337 -49.925,-72.372 -63.929,-97.273c-20.704,-36.828 -73.582,-145.809 -87.281,-185.303c-2.501,-7.202 -17.114,-52.049 -21.54,-62.293c-1.99,-3.253 -11.895,-32.94 -21.42,-66.833c-49.592,-176.473 -62.584,-248.749 -66.532,-270.694c-2.566,-14.28 -1.539,-24.183 -1.689,-35.879c-0.5,-38.103 -1,-76.207 -1.5,-114.31c5.321,-11.408 0.566,-50.254 12.46,-101.15c11.106,-47.543 17.528,-82.021 49.739,-142.732c50.126,-94.479 53.689,-71.255 134.583,-140.302c5.182,-1.957 45.339,-4.01 45.339,-4.01c25.414,11.924 35.517,27.717 39.844,36.086c-1.902,11.753 29.684,244.309 31.624,263.817c-1.834,11.513 6.176,40.176 7.288,50.003c-1.148,11.099 30.82,164.311 34.014,170.134c9.259,34.649 23.043,73.921 27.708,83.33c1.184,6.544 35.304,104.68 62.618,151.499c17.287,38.262 50.78,87.095 113.679,174.017c4.532,2.642 13.358,17.378 17.89,20.02c0.23,16.782 -0.411,12.215 -0.411,12.215c-50.86,138.851 -171.783,317.489 -243.439,345.605l0,0.009Z" style="fill:#ee874d;fill-opacity:0.99;"/><path d="M10693.316,5816.221l-21.46,15.605c-164.103,-145.383 -253.732,-335.253 -251.24,-342.19c44.554,-59.948 70.483,-89.651 114.927,-173.39c3.858,-7.535 50.263,-99.86 83.834,-192.722c37.508,-103.751 65.418,-270.001 59.828,-258.891c0,0 4.458,-42.81 6.398,-50.139c4.327,-97.047 17.831,-223.275 19.901,-242.639c-3.923,-11.992 42.004,-51.719 51.781,-54.184c16.714,-4.22 36.102,-7.345 36.567,-0.174c13.274,10.239 107.067,82.562 145.28,151.023c2.961,-17.011 52.956,146.522 59.517,228.997c0.314,38.105 -2.957,132.054 0.04,150.24c-17.032,107.207 -38.683,184.228 -45.669,222.322c-1.64,3.096 -33.762,113.205 -35.789,118.155c13.31,-21.553 -56.069,172.538 -80.298,204.098c15.72,-9.527 -93.161,179.99 -143.618,223.888Z" style="fill:#ee874c;fill-opacity:0.99;"/><path d="M5527.861,5443.661c-2.205,-1.826 -17.719,-14.704 -28.062,-22.169c-10.588,-8.064 -9.709,-7.772 -20.895,-14.679c-89.572,-64.759 -120.66,-88.586 -123.204,-90.683c-64.996,-53.366 -224.685,-217.323 -225.266,-217.883c-236.854,-230.998 -253.095,-276.597 -296.246,-330.92c96.909,-59.873 348.719,-164.252 535.375,-354.619c13.209,-13.474 18.93,-27.249 36.534,-22.551c0,0 11.264,26.797 15.775,36.677c22.204,66.498 54.785,139.557 65.833,155.977c2.299,2.374 13.135,28.06 28.215,50.083c17.065,25.674 60.038,92.385 64.671,99.601c22.453,30.651 27.809,44.318 29.915,46.826c-213.027,323.128 -19.452,686.906 -21.226,699.887c-0.69,5.024 -60.746,-40.581 -61.437,-35.557l0.018,0.009Z" style="fill:#ee874c;"/><path d="M9917.855,7632.189c-33.906,-5.065 -50.238,-217.495 68.787,-439.292c50.557,9.906 68.896,12.96 119.864,21.676c132.058,22.591 372.118,-11.516 507.378,-60.902c11.082,2.068 239,-74.116 270.532,-88.571c11.54,1.825 34.621,-7.674 77.837,-11.653c4.549,4.332 30.372,29.833 30.372,29.833c3.134,7.665 21.962,53.715 -20.881,101.346c-11.623,13.705 -54.44,65.547 -55.254,66.361c-2.301,2.44 -46.052,47.107 -50.705,49.74c-46.813,47.098 -46.023,45.683 -49.926,49.75c-7.094,1.862 -34.923,23.48 -42.522,36.16c-12.983,5.632 -13.206,3.75 -20.857,15.713c-3.52,2.683 -61.583,47.714 -64.119,49.678c9.415,-1.63 -98.736,66.13 -120.806,72.522c-6.295,1.27 -62.172,30.511 -63.254,31.097c-7.23,2.439 -32.902,13.753 -50.257,21.749c13.636,0.139 -18.715,12.435 -60.911,20.048c-17.989,3.243 -227.894,71.707 -475.28,34.753l-0,-0.009Z" style="fill:#ee874d;fill-opacity:0.99;"/><path d="M5288.283,7672.161c-241.838,40.824 -542.871,-41.466 -543.296,-41.524c-17.973,-7.729 -63.079,-21.852 -92.604,-36.794c-8.966,-11.195 -82.928,-44.673 -90.682,-50.821c-17.456,-9.133 -37.153,-22.621 -39.713,-24.576c-4.613,-2.765 -65.138,-46.737 -66.287,-47.442c-16.075,-9.882 -66.765,-55.002 -74.834,-56.66c-3.416,-3.397 -29.847,-30.387 -39.076,-37.059c-1.161,-0.979 -19.668,-16.621 -22.343,-21.114c-2.458,-2.319 -4.915,-4.638 -7.382,-6.956c-2.439,-2.257 -4.879,-4.523 -7.318,-6.78c-6.692,-6.114 -18.982,-16.965 -21.92,-21.216c-2.352,-2.4 -4.696,-4.799 -7.048,-7.19c-4.303,-2.795 -36.721,-44.472 -50.131,-57.522c-2.195,-2.534 -4.389,-5.068 -6.584,-7.602c-43.652,-47.274 -25.954,-93.197 -22.975,-100.926l29.744,-30.486c43.441,3.036 42.889,1.06 57.643,6.505c10.687,4.09 154.792,53.089 164.858,56.115c11.115,5.183 31.224,11.659 35.863,14.38c14.166,4.186 414.947,106.153 705.756,43.231c24.374,47.478 26.563,43.579 28.571,47.734c85.479,176.421 71.192,379.264 69.741,386.721l0.018,-0.018Z" style="fill:#ee874d;fill-opacity:0.99;"/><path d="M8982.071,7806.213c-1.045,-1.803 -45.163,-85.65 -51.32,-92.15c-0.303,-12.782 -34.341,-64.644 -56.023,-93.481c-2.244,-8.09 -41.832,-71.785 -85.221,-112.691c-0.304,-0.289 -0.59,-0.595 -0.841,-0.92c-110.115,-139.795 -269.226,-269.985 -275.927,-274.453c-4.497,-3.527 -11.664,-7.778 -58.273,-38.493c166.038,-124.39 160.254,-128.328 241.538,-201.52l16.352,5.968c13.816,7.101 44.951,31.245 56.738,36.368c0.64,2.816 38.725,30.718 43.439,35.526c5.098,5.149 53.295,53.87 65.527,62.58c4.62,2.659 83.355,69.214 129.292,106.624c24.517,19.968 72.257,76.462 101.909,98.49c9.44,9.102 58.945,52.634 78.203,71.453c10.961,15.722 10.787,14.361 22.68,27.818c27.296,26.787 55.002,66.363 57.749,70.882c29.211,47.188 38.433,59.982 54.504,109.591c-33.065,12.631 -262.36,124.266 -340.323,188.416l-0,-0.009Z" style="fill:#ee874c;fill-opacity:0.99;"/><path d="M9220.026,8446.051c-15.381,8.117 -71.466,59.401 -85.457,-6.91c-3.959,-18.76 -4.807,-16.991 -10.037,-35.472c-6.463,-233.079 -77.263,-458.877 -105.309,-513.023c-1.896,-4.457 -5.12,-21.491 -13.1,-44.854c156.603,-159.806 248.833,-165.922 341.483,-190.057c38.503,72.492 39.613,89.531 59.38,137.358c6.691,23.642 9.325,27.587 10.728,29.687c1.43,2.144 7.745,38.797 11.638,48.833c27.219,99.864 11.949,177.827 8.986,192.997c-3.818,10.499 -12.727,54.09 -27.033,86.855c-6.59,11.864 -3.503,11.796 -15.222,46.587c-2.838,6.932 -82.288,145.589 -83.189,147.421c-0.603,0.732 -40.492,45.739 -43.447,49.982c-4.001,3.997 -3.46,4.169 -49.413,50.594l-0.009,0Z" style="fill:#ee874c;fill-opacity:0.99;"/><path d="M6068.59,8491.917c-33.658,25.927 -131.755,-77.692 -136.487,-82.543c-2.999,-4.145 -81.687,-125.726 -84.258,-132.831c-6.162,-12.092 -9.958,-10.397 -48.251,-94.023c-15.017,-32.783 -24.816,-75.929 -28.757,-86.292c-3.301,-15.095 -20.259,-92.655 4.842,-193.143c3.733,-10.126 24.652,-94.466 26.071,-96.658c1.376,-2.12 19.851,-53.095 47.137,-113.541c214.959,41.367 303.745,132.944 346.385,189.13c-2.332,7.059 -6.759,24.368 -9.091,31.427c-15.147,31.881 -24.434,73.228 -25.905,79.774c-1.646,12.502 -66.929,200.719 -68.581,435.343c-3.159,14.226 -6.318,28.451 -9.485,42.677c-12.636,19.13 -12.049,19.46 -13.62,20.672l0,0.009Z" style="fill:#ee874c;fill-opacity:0.99;"/><path d="M5375.766,3368.842c-27.74,-10.183 -208.792,-131.762 -441.86,-206.295c-11.506,-3.683 -24.28,-4.282 -34.749,-10.303c-5.252,-3.015 -9.927,-1.576 -15.179,-4.591c47.662,-73.04 33.652,-59.134 68.532,-102.592c2.695,-0.382 -7.373,-4.408 122.568,-100.89c69.092,-51.306 127.03,-72.172 140.823,-80.67c4.671,-2.598 114.715,-49.452 114.715,-49.452c16.673,-6.405 89.864,-25.698 94.888,-26.689c28.467,-5.61 23.351,-4.927 97.64,-12.428c63.358,22.326 76.039,42.561 87.317,100.874c-16.296,18.621 -52.928,78.777 -57.225,85.83c-42.738,70.192 -88.168,161.835 -88.573,166.227c-1.055,2.347 -57.922,151.286 -61.172,158.567c-0.73,4.6 -27.735,82.412 -27.735,82.412l0.009,-0Z" style="fill:#ee874c;fill-opacity:0.99;"/><path d="M9785.667,3439.458c-19.142,-51.356 -24.416,-59.829 -27.377,-64.594c102.637,-75.435 272.175,-173.38 434.905,-215.606c59.773,-15.514 490.776,-127.362 762.191,-122.33c1.292,0.022 0,0 15.804,3.496l1.36,92.652c-80.166,-5.231 -79.117,-9.799 -158.883,-2.311c-680.566,63.892 -905.04,234.892 -1028,308.693Z" style="fill:#c7703e;"/><path d="M5368.719,3428.748c-159.873,-71.723 -462.813,-256.622 -1013.265,-282.808c-73.095,-3.474 -208.997,7.916 -231.96,-0.654c2.307,-11.969 7.051,-86.352 10.499,-86.61c255.316,-19.696 474.842,27.692 513.766,34.439c223.523,38.737 285.414,65.379 296.92,69.062c233.077,74.532 409.912,178.053 437.652,188.236c0.663,4.09 1.334,8.17 1.997,12.26c-9.787,24.984 -7.144,23.974 -10.952,51.231c-1.549,4.954 -3.107,9.907 -4.656,14.861l-0,-0.018Z" style="fill:#c7703e;"/><path d="M6570.618,3879.984c-95.978,-265.57 245.465,-387.416 300.983,-73.028c-89.032,249.183 -249.1,128.904 -300.983,73.028Z"/><path d="M8533.895,3885.042c-104.361,141.699 -279.061,137.998 -309.259,-92.122c77.305,-238.61 351.703,-179.954 311.539,88.497l-2.28,3.625Z"/><path d="M4840.752,4779.69c-62.395,-71.789 -62.039,-70.748 -62.538,-72.814c312.63,-166.587 322.653,-153.333 585.784,-389.58c1.665,-1.495 13.342,-16.829 14.477,-18.309l4.515,7.765c5.835,26.314 4.936,24.979 7.095,28.327c1.826,16.173 0.709,15.14 8.201,28.333l3.42,1.247c-1.793,11.194 -0.664,10.023 4.148,19.935c1.017,6.625 0.123,10.758 0.945,12.36c-17.604,-4.707 13.209,-13.474 0,0c-186.656,190.367 -469.138,322.853 -566.046,382.726l0,0.009Z" style="fill:#c7703e;"/><path d="M10374.269,4627.313c-4.824,-1.869 -4.623,-10.436 -9.447,-12.305c-92.71,-35.943 -111.627,8.453 -500.491,-215.824c-53.2,-30.68 -51.402,-30.496 -105.67,-61.651c27.023,-56.843 23.451,-57.415 25.94,-62.193c4.1,-9.776 4.919,-7.564 8.717,-16.567c12.226,14.037 10.97,13.236 12.226,14.037c358.878,226.823 524.719,240.289 632.71,268.745c-32.902,43.942 -29.872,44.3 -63.994,85.769l0.009,-0.009Z" style="fill:#c7703e;"/><path d="M10467.432,6923.541c-22.958,-30.699 -151.874,-203.122 -147.301,-455.987l7.902,-2.473c10.735,1.09 44.891,-10.455 62.562,-12.872c24.044,182.857 21.958,259.194 155.825,451.331c-6.91,0.852 -40.312,10.035 -50.112,13.775c-9.631,2.075 -19.254,4.15 -28.885,6.216l0.009,0.009Z" style="fill:#c7703e;"/><path d="M4717.45,6978.399c-28.373,-9.778 -29.953,-3.568 -59.354,-10.132c-11.173,-4.014 -7.252,-8.055 -19.85,-8.762c20.666,-32.098 162.874,-252.99 139.826,-456.296c21.29,6.013 54.789,15.215 69.388,12.645l7.982,2.588c9.198,235.669 -116.918,427.838 -137.991,459.958Z" style="fill:#c7703e;"/><path d="M4540.324,5932.392c-7.413,-6.558 0.686,0.4 0,0c-5.778,-3.399 -13.664,-5.297 -19.87,-8.948c-2.462,-2.708 -2.947,-0.924 -35.703,-28.565c-4.792,-4.71 -9.594,-9.419 -14.386,-14.129l-1.875,-5.82c71.656,-28.116 198.127,-215.944 248.987,-354.804c5.121,5.697 60.044,57.842 65.299,62.83c-86.692,214.474 -203.533,310.534 -242.46,349.443l0.009,-0.009Z" style="fill:#c7703e;"/><path d="M10622.586,5874.986c-128.606,-86.98 -235.293,-313.469 -249.793,-344.249c60.218,-59.653 59.13,-58.766 64.314,-63.837c98.782,194.384 86.253,205.267 250.356,350.649c-1.155,1.233 1.419,2.002 -10.335,18.407c-18.688,14.965 -17.979,13.436 -34.543,30.095c-6.348,3.836 -6.889,-1.29 -12.709,2.231c-0.677,0.414 0,0 -7.282,6.722l-0.009,-0.018Z" style="fill:#c7703e;"/><path d="M5601.215,5492.55c-13.956,-7.772 -57.568,-36.217 -62.637,-40.305c0.69,-5.024 -5.156,-3.936 -4.466,-8.96c0.986,-7.204 -27.707,-114.175 -30.631,-264.429c-2.345,-120.539 6.443,-269.422 101.269,-413.25c11.863,9.784 13.089,12.789 26.969,17.57c-46.235,141.111 -84.037,204.421 -78.202,486.914c0.903,43.585 8.579,31.444 47.698,222.477l-0,-0.018Z" style="fill:#c7703e;"/><path d="M9917.855,7632.189c-3.507,-1.104 -56.337,-10.951 -64.361,-14.255c-4.938,-1.771 -9.885,-3.541 -14.824,-5.311c-5.084,-153.7 15.127,-238.05 34.438,-296.173c27.981,-84.202 61.083,-135.163 62.976,-139.421c3.369,0.663 2.093,-2.057 4.726,-1.536c0.727,0.143 0,0 8.454,3.698c10.6,4.17 9.566,5.102 20.244,3.352c19.582,6.827 18.23,6.16 36.832,11.467c-110.553,224.716 -88.191,341.301 -88.468,438.172l-0.018,0.009Z" style="fill:#c7703e;fill-opacity:0.99;"/><path d="M5282.242,7674.021c1.452,-7.457 14.076,-208.566 -71.403,-384.987c-2.008,-4.146 -1.951,-3.802 -26.316,-51.271c19.605,-6.082 18.478,-5.548 36.554,-12.287c11.676,2.142 10.429,0.571 20.196,-3.753l6.565,-0.883c3.633,2.979 10.128,7.228 11.148,9.137c9.768,18.38 103.647,102.126 101.25,423.682c-4.918,1.813 -9.02,2.971 -13.938,4.784c-1.154,0.499 -9.716,4.155 -14.754,5.456c-24.514,6.285 -24.173,3.343 -49.301,10.121Z" style="fill:#c7703e;fill-opacity:0.99;"/><path d="M9600.323,5381.167c-1.46,22.569 31.187,-104.065 -13.278,-355.473c-13.194,-74.627 -33.184,-160.242 -62.875,-256.222c11.385,-1.058 9.315,-2.709 15.486,-12.418c1.02,-3.108 2.031,-6.215 3.051,-9.323c104.275,149.015 131.731,427.802 108.963,599.28c-2.463,1.415 6.637,-2.468 -21.098,16.327c-8.851,7.216 -29.603,7.807 -30.249,17.839l-0,-0.009Z" style="fill:#c7703e;"/><path d="M6193.168,7892.266c-42.631,-56.195 -134.234,-149.795 -349.193,-191.162c10.33,-20.557 8.636,-20.088 18.648,-40.553c8.046,-16.463 8.35,-14.475 16.597,-31.117c170.422,62.692 229.811,79.433 343.39,192.081l-2.909,12.772c-17.988,26.823 -12.707,28.342 -26.533,57.979Z" style="fill:#c7703e;"/><path d="M9009.697,7863.336c-17.008,-27.851 -12.286,-28.963 -27.626,-57.123c47.961,-101.676 247.484,-172.154 272.131,-180.865c34.159,-12.067 32.976,-12.594 66.041,-25.216c1.204,2.544 8.715,18.392 16.89,30.843c10.744,20.272 9.037,19.547 19.871,40.04c-92.65,24.144 -190.704,32.506 -347.308,192.321Z" style="fill:#c7703e;"/><path d="M9026.673,6542.074c-6.426,-1.932 -16.883,-12.651 -23.31,-14.583c23.564,-36.694 88.963,-143.598 144.005,-231.688c48.012,-76.831 88.149,-139.351 85.787,-128.487c11.913,6.174 23.789,11.41 35.291,17.235c-17.132,29.981 -185.233,324.161 -241.782,357.515l0.009,0.009Z" style="fill:#c7703e;"/><path d="M9358.12,6029.584l-6.827,-1.29c-13.804,-2.615 -17.901,-7.668 -32.875,-7.943c13.195,-26.578 45.789,-84.514 183.763,-341.815c0.538,-1.006 4.477,-0.826 18.296,-4.334c2.111,0.464 1.601,-0.866 26.927,1.91c-95.841,216.915 -175.438,332.49 -189.285,353.474Z" style="fill:#c7703e;"/><path d="M5808.179,6060.746c-149.441,-253.36 -159.832,-346.536 -162.894,-359.971c0,0 22.117,-3.64 26.441,-3.89c25.511,32.008 161.266,318.995 165.014,357.196c-13.039,7.03 -20.867,5.529 -28.562,6.673l-0,-0.009Z" style="fill:#c7703e;"/><path d="M6444.517,6908.754c-61.046,-48.019 -76.994,-70.98 -112.408,-113.2c-56.266,-67.067 -112.46,-141.549 -103.848,-130.35c9.819,-8.624 9.798,-15.641 14.956,-27.322c8.508,7.997 63.346,73.876 115.658,135.189c49.992,58.595 100.956,109.587 105.61,119.616c-4.022,1.998 -13.454,10.433 -17.476,12.43l-2.492,3.628l0,0.009Z" style="fill:#c7703e;"/><path d="M6152.707,6563.923c-17.822,7.329 -221.982,-280.571 -246.666,-347.299c-3.953,-10.673 12.597,-6.15 18.675,-22.875c19.739,22.469 239.421,334.068 250.74,363.519c-4.757,2.855 -17.992,3.8 -22.749,6.655Z" style="fill:#c7703e;"/><path d="M8961.802,6649.548c-64.039,121.701 -191.859,277.381 -203.488,258.701c-0.828,-1.336 -22.119,-1.589 -16.725,-7.769c91.985,-105.468 122.196,-165.388 202.222,-273.827c6.39,11.028 7.904,13.675 18,22.886l-0.009,0.009Z" style="fill:#c7703e;"/><path d="M8461.867,7198.653c-18.18,-8.948 -17.704,-8.254 -35.424,-14.72c39.465,-34.907 76.357,-42.844 161.226,-116.721c50.57,-44.023 44.087,-46.281 96.222,-89.64c10.057,10.573 9.891,12.407 22.07,19.56c-75.584,76.645 -69.339,82.41 -244.103,201.521l0.009,-0Z" style="fill:#c7703e;"/><path d="M6786.339,7190.28c-3.448,5.319 -69.474,-37.56 -149.324,-95.751c-35.087,-25.563 -108.644,-91.951 -118.314,-102.688c2.052,-2.623 -2.083,-9.516 11.585,-18.111c8.183,-5.139 21.58,15.061 110.6,86.984c39.892,32.228 186.198,131.311 157.371,125.493" style="fill:#c7703e;"/></g></g></svg>